<?xml version="1.0" encoding="iso-8859-1"?>
<!-- Generator: Adobe Illustrator 19.0.0, SVG Export Plug-In . SVG Version: 6.00 Build 0)  -->
<svg version="1.1" id="Capa_1" xmlns="http://www.w3.org/2000/svg" xmlns:xlink="http://www.w3.org/1999/xlink" x="0px" y="0px"
	 viewBox="0 0 479.403 479.403" style="enable-background:new 0 0 479.403 479.403;" xml:space="preserve">
<g>
	<g>
		<path d="M479.063,291.699c-4.162-49.773-45.794-88.039-95.74-88c-11.51,0.022-22.921,2.128-33.68,6.216l-30.856-65.136
			l5.976-13.08c16.524,2.637,33.293-2.967,44.912-15.008c7.551-7.539,7.56-19.772,0.021-27.323
			c-3.627-3.633-8.552-5.673-13.685-5.669h-67.2c-9.636-0.011-17.457,7.792-17.468,17.428c-0.008,7.288,4.514,13.813,11.34,16.364
			l26.464,9.92l-5.632,12.288h-161.56l9.152-38.136c1.029-4.297-1.619-8.614-5.916-9.644c-0.612-0.147-1.239-0.22-1.868-0.22h-64
			c-22.091,0-40,17.909-40,40s17.909,40,40,40h16v-16h-16c-13.255,0-24-10.745-24-24s10.745-24,24-24h53.848l-23.328,97.216
			C57.597,197.086,8.897,233.094,1.069,285.34c-7.828,52.246,28.18,100.946,80.426,108.774
			c52.246,7.828,100.946-28.18,108.774-80.426c6.916-46.159-20.49-90.57-64.85-105.086l6.4-26.824l101.336,123.008
			c1.518,1.842,3.78,2.91,6.168,2.912h48.408c4.418,52.835,50.831,92.084,103.666,87.666
			C444.232,390.946,483.482,344.534,479.063,291.699z M114.147,255.555c24.38,10.41,35.705,38.614,25.294,62.994
			c-10.41,24.38-38.614,35.705-62.994,25.294c-24.38-10.41-35.705-38.614-25.294-62.994c7.553-17.689,24.936-29.161,44.17-29.15
			c1.096,0,2.176,0.088,3.248,0.168l-11.032,45.968l15.568,3.728L114.147,255.555z M175.323,299.699
			c0.374,44.566-35.451,80.996-80.016,81.37s-80.996-35.451-81.37-80.016c-0.374-44.566,35.451-80.996,80.016-81.37
			c4.063-0.034,8.124,0.239,12.146,0.816l-3.744,15.592c-35.267-4.032-67.125,21.289-71.157,56.555s21.289,67.125,56.555,71.157
			c35.267,4.032,67.125-21.289,71.157-56.555c3.337-29.19-13.544-56.926-41.003-67.373l3.752-15.648
			C153.753,235.444,175.268,265.701,175.323,299.699z M355.851,260.395l14.832,31.304h-34.64
			C338.191,279.034,345.326,267.759,355.851,260.395z M390.523,296.275l0.024-0.008l-20.24-42.736
			c25.508-7.217,52.038,7.611,59.255,33.119c7.217,25.508-7.611,52.038-33.119,59.255c-25.508,7.217-52.038-7.611-59.255-33.119
			c-0.474-1.674-0.856-3.372-1.145-5.087h47.28c4.418-0.017,7.986-3.612,7.97-8.03C391.289,298.495,391.026,297.336,390.523,296.275
			z M348.947,245.803c-16.021,10.227-26.671,27.042-29.072,45.896h-16.144c2.561-25.047,16.764-47.426,38.336-60.408
			L348.947,245.803z M288.235,102.507c-0.554-0.223-0.916-0.762-0.912-1.36c0-0.8,0.648-1.448,1.448-1.448c0.003,0,0.005,0,0.008,0
			h67.2c1.829-0.002,3.314,1.479,3.316,3.308c0.001,0.881-0.349,1.726-0.972,2.348c-10.389,10.365-25.87,13.716-39.616,8.576
			L288.235,102.507z M237.355,284.731l-100.8-122.4l1.56-6.632h158.096L237.355,284.731z M251.731,291.699l58.336-127.888
			l25.12,52.952c-27.102,15.735-44.817,43.709-47.456,74.936H251.731z M410.525,375.003c-8.727,3.13-17.931,4.718-27.202,4.696
			c-41.064-0.052-75.438-31.147-79.592-72h16.144c4.391,35.112,36.415,60.017,71.528,55.626s60.017-36.415,55.626-71.528
			c-4.391-35.112-36.415-60.017-71.528-55.626c-4.117,0.515-8.174,1.428-12.114,2.728l-6.872-14.504
			c41.589-14.914,87.395,6.71,102.309,48.299S452.115,360.089,410.525,375.003z"/>
	</g>
</g>
<g>
</g>
<g>
</g>
<g>
</g>
<g>
</g>
<g>
</g>
<g>
</g>
<g>
</g>
<g>
</g>
<g>
</g>
<g>
</g>
<g>
</g>
<g>
</g>
<g>
</g>
<g>
</g>
<g>
</g>
</svg>
