<?xml version="1.0" encoding="iso-8859-1"?>
<!-- Generator: Adobe Illustrator 19.0.0, SVG Export Plug-In . SVG Version: 6.00 Build 0)  -->
<svg version="1.1" id="Capa_1" xmlns="http://www.w3.org/2000/svg" xmlns:xlink="http://www.w3.org/1999/xlink" x="0px" y="0px"
	 viewBox="0 0 480.009 480.009" style="enable-background:new 0 0 480.009 480.009;" xml:space="preserve">
<g>
	<g>
		<path d="M479.913,311.508c-0.046-0.706-0.186-1.403-0.416-2.072c-0.088-0.256-0.152-0.496-0.264-0.744
			c-0.389-0.87-0.931-1.664-1.6-2.344l-128-128c-1.492-1.493-3.514-2.335-5.624-2.344h-172.56c2.971-6.251,4.528-13.079,4.56-20
			c-0.031-23.51-17.059-43.55-40.256-47.376c0.168-1.536,0.253-3.079,0.256-4.624c0-26.51-21.49-48-48-48c-26.51,0-48,21.49-48,48
			c0.003,1.545,0.088,3.088,0.256,4.624c-26.05,4.143-43.808,28.62-39.665,54.669c1.062,6.678,3.53,13.054,7.241,18.707
			c-10.87,16.499-10.389,38.004,1.208,54c-13.274,18.326-11.795,43.468,3.536,60.112L2.353,306.348
			c-1.5,1.5-2.344,3.534-2.344,5.656v160c0,4.418,3.582,8,8,8h464c4.418,0,8-3.582,8-8v-160
			C480.009,311.836,479.921,311.684,479.913,311.508z M452.673,304.004h-49.2l-30-32h47.2L452.673,304.004z M271.969,232.004h42.08
			l22.496,24h-42.072L271.969,232.004z M272.545,256.004h-53.224l-24-24h54.728L272.545,256.004z M351.545,272.004l30,32h-42.072
			l-30-32H351.545z M404.697,256.004h-46.224l-22.464-24h44.728L404.697,256.004z M340.697,192.004l24,24h-43.728l-22.496-24
			H340.697z M276.545,192.004l22.504,24h-42.08l-22.496-24H276.545z M212.545,192.004l22.504,24h-55.728l-24-24H212.545z
			 M23.897,176.804c-5.059-5.751-7.862-13.141-7.888-20.8c0-17.673,14.327-32,32-32h0.08c0.52,0.072,1.048,0.136,1.6,0.16
			c4.412,0.232,8.177-3.157,8.409-7.569c0.05-0.958-0.072-1.917-0.361-2.831c-1.084-3.143-1.667-6.436-1.728-9.76
			c0-17.673,14.327-32,32-32s32,14.327,32,32c-0.056,3.32-0.634,6.611-1.712,9.752c-1.332,4.213,1.004,8.707,5.217,10.039
			c0.914,0.289,1.873,0.411,2.831,0.361c0.557-0.015,1.113-0.066,1.664-0.152c17.673,0,32,14.327,32,32
			c-0.014,7.299-2.558,14.367-7.2,20h-16.8c-0.933,0.016-1.856,0.194-2.728,0.528c-0.096,0.04-0.208,0-0.312,0.08
			c-0.104,0.08-0.28,0.2-0.44,0.28c-0.64,0.314-1.234,0.712-1.768,1.184c-0.12,0.104-0.288,0.152-0.408,0.272l-34.344,34.344
			v-84.688c0-4.418-3.582-8-8-8s-8,3.582-8,8v44.688l-18.344-18.344c-3.178-3.069-8.243-2.981-11.312,0.197
			c-2.994,3.1-2.994,8.015,0,11.115l29.656,29.656v33.368l-8,8l-10.344-10.336c-3.178-3.069-8.243-2.981-11.312,0.197
			c-2.994,3.1-2.994,8.015,0,11.115l10.344,10.344l-36.84,36.8c-5.059-5.748-7.849-13.143-7.848-20.8
			c-0.009-8.386,3.295-16.437,9.192-22.4c3.049-3.111,3.049-8.089,0-11.2c-11.746-11.809-12.316-30.704-1.304-43.2
			C26.457,184.211,26.457,179.798,23.897,176.804z M168.009,464.004h-64v-96h64V464.004z M256.009,464.004h-72v-104
			c0-4.418-3.582-8-8-8h-80c-4.418,0-8,3.582-8,8v104h-72V315.316l13.76-13.76l63.888-63.888l42.352-42.352l120,120V464.004z
			 M235.321,272.004h52.224l30,32h-50.224L235.321,272.004z M464.009,464.004h-192v-144h192V464.004z"/>
	</g>
</g>
<g>
	<g>
		<path d="M392.009,32.004c-30.928,0-56,25.072-56,56c0,30.928,25.072,56,56,56c30.911-0.04,55.96-25.089,56-56
			C448.009,57.076,422.937,32.004,392.009,32.004z M392.009,128.004c-22.091,0-40-17.909-40-40s17.909-40,40-40
			c22.091,0,40,17.909,40,40C431.982,110.085,414.089,127.978,392.009,128.004z"/>
	</g>
</g>
<g>
	<g>
		<rect x="384.009" y="0.004" width="16" height="16"/>
	</g>
</g>
<g>
	<g>
		<rect x="384.009" y="160.004" width="16" height="16"/>
	</g>
</g>
<g>
	<g>
		<rect x="304.009" y="80.004" width="16" height="16"/>
	</g>
</g>
<g>
	<g>
		<rect x="464.009" y="80.004" width="16" height="16"/>
	</g>
</g>
<g>
	<g>
		<rect x="327.441" y="23.435" transform="matrix(0.7071 -0.7071 0.7071 0.7071 76.0201 246.3993)" width="16" height="16"/>
	</g>
</g>
<g>
	<g>
		<rect x="440.565" y="136.571" transform="matrix(0.7071 -0.7071 0.7071 0.7071 29.1552 359.5285)" width="16" height="16"/>
	</g>
</g>
<g>
	<g>
		<rect x="327.435" y="136.565" transform="matrix(0.7071 -0.7071 0.7071 0.7071 -3.9761 279.5307)" width="16" height="16"/>
	</g>
</g>
<g>
	<g>
		<rect x="440.571" y="23.441" transform="matrix(0.7071 -0.7071 0.7071 0.7071 109.1514 326.3967)" width="16" height="16"/>
	</g>
</g>
<g>
</g>
<g>
</g>
<g>
</g>
<g>
</g>
<g>
</g>
<g>
</g>
<g>
</g>
<g>
</g>
<g>
</g>
<g>
</g>
<g>
</g>
<g>
</g>
<g>
</g>
<g>
</g>
<g>
</g>
</svg>
