<?xml version="1.0" encoding="iso-8859-1"?>
<!-- Generator: Adobe Illustrator 19.0.0, SVG Export Plug-In . SVG Version: 6.00 Build 0)  -->
<svg version="1.1" id="Capa_1" xmlns="http://www.w3.org/2000/svg" xmlns:xlink="http://www.w3.org/1999/xlink" x="0px" y="0px"
	 viewBox="0 0 480.005 480.005" style="enable-background:new 0 0 480.005 480.005;" xml:space="preserve">
<g>
	<g>
		<path d="M472.003,152h-56c-4.418,0-8,3.582-8,8v24h-72v-8c0-4.418-3.582-8-8-8h-32v-40c0-4.418-3.582-8-8-8h-24V72h23.2
			l47.848,9.6c18.539,3.706,36.572-8.319,40.278-26.858c3.706-18.539-8.319-36.572-26.858-40.278c-4.429-0.885-8.99-0.885-13.419,0
			L287.203,24h-23.2V8c0-4.418-3.582-8-8-8h-32c-4.418,0-8,3.582-8,8v16h-23.2l-47.856-9.6c-18.539-3.728-36.59,8.279-40.318,26.818
			c-3.728,18.539,8.279,36.59,26.818,40.318c2.217,0.446,4.472,0.671,6.733,0.672c2.273-0.001,4.539-0.226,6.768-0.672L192.803,72
			h23.2v48h-24c-4.418,0-8,3.582-8,8v40h-32c-4.418,0-8,3.582-8,8v16h-40c-57.41,0.066-103.934,46.59-104,104v48
			c0,4.418,3.582,8,8,8h80c4.418,0,8-3.582,8-8v-48c0-4.418,3.582-8,8-8h40v16c0,4.418,3.582,8,8,8h176c4.418,0,8-3.582,8-8v-8h72
			v24c0,4.418,3.582,8,8,8h56c4.418,0,8-3.582,8-8V160C480.003,155.582,476.421,152,472.003,152z M264.003,40h24
			c0.538,0.005,1.074-0.049,1.6-0.16l48.624-9.72c9.875-1.969,19.476,4.44,21.445,14.315c1.969,9.875-4.44,19.476-14.315,21.445
			c-2.354,0.469-4.777,0.469-7.131,0l-48.624-9.72c-0.526-0.111-1.062-0.165-1.6-0.16h-24V40z M144.003,272h-40
			c-13.255,0-24,10.745-24,24v40h-64v-40c0.057-48.577,39.423-87.943,88-88h40V272z M232.003,16h16v8h-16V16z M232.003,40h16v16h-16
			V40z M232.003,72h16v48h-16V72z M192.003,56c-0.538-0.005-1.074,0.049-1.6,0.16l-48.624,9.72
			c-9.875,1.969-19.476-4.44-21.445-14.315c-1.969-9.875,4.44-19.476,14.315-21.445c2.354-0.469,4.777-0.469,7.131,0l48.624,9.72
			c0.526,0.111,1.062,0.165,1.6,0.16h24v16H192.003z M200.003,136h80v32h-80V136z M320.003,296h-160V184h160V296z M408.003,280h-72
			v-80h72V280z M464.003,312h-40V168h40V312z"/>
	</g>
</g>
<g>
	<g>
		<path d="M83.635,425.272l-28.584-53.064c-2.458-3.893-7.607-5.055-11.499-2.597c-1.048,0.662-1.935,1.549-2.597,2.597
			l-28.584,53.064c-6.068,11.143-5.763,24.67,0.8,35.528c7.381,12.128,20.637,19.435,34.832,19.2
			c14.195,0.235,27.451-7.072,34.832-19.2C89.398,449.941,89.703,436.415,83.635,425.272z M69.107,452.592
			C64.594,459.869,56.563,464.21,48.003,464c-8.56,0.21-16.591-4.131-21.104-11.408c-3.693-6.019-3.858-13.561-0.432-19.736
			l21.536-40l21.536,40C72.965,439.031,72.8,446.573,69.107,452.592z"/>
	</g>
</g>
<g>
</g>
<g>
</g>
<g>
</g>
<g>
</g>
<g>
</g>
<g>
</g>
<g>
</g>
<g>
</g>
<g>
</g>
<g>
</g>
<g>
</g>
<g>
</g>
<g>
</g>
<g>
</g>
<g>
</g>
</svg>
